<!DOCTYPE svg PUBLIC "-//W3C//DTD SVG 1.1//EN" "http://www.w3.org/Graphics/SVG/1.1/DTD/svg11.dtd">

<!-- Uploaded to: SVG Repo, www.svgrepo.com, Transformed by: SVG Repo Mixer Tools -->
<svg fill="#707070" width="18px" height="18px" version="1.1" id="Capa_1" xmlns="http://www.w3.org/2000/svg" xmlns:xlink="http://www.w3.org/1999/xlink" viewBox="0 0 478.439 478.439" xml:space="preserve">

<g id="SVGRepo_bgCarrier" stroke-width="0"/>

<g id="SVGRepo_tracerCarrier" stroke-linecap="round" stroke-linejoin="round"/>

<g id="SVGRepo_iconCarrier"> <g> <path d="M433.982,27.357H237.559c-24.512,0-44.457,19.947-44.457,44.457v70.042h31.852V71.814c0-6.952,5.654-12.605,12.605-12.605 h196.422c6.952,0,12.605,5.654,12.605,12.605v196.423c0,6.953-5.654,12.605-12.605,12.605H309.226v31.852h124.756 c24.512,0,44.457-19.946,44.457-44.457V71.814C478.439,47.304,458.493,27.357,433.982,27.357z"/> <path d="M335.767,199.215c16.128,0,29.2-13.066,29.2-29.192c0-16.128-13.072-29.194-29.2-29.194 c-16.12,0-29.192,13.066-29.192,29.194C306.574,186.15,319.646,199.215,335.767,199.215z"/> <path d="M428.67,106.319c0-16.128-13.072-29.194-29.2-29.194c-16.12,0-29.192,13.066-29.192,29.194 c0,16.127,13.072,29.192,29.192,29.192C415.598,135.511,428.67,122.446,428.67,106.319z"/> <path d="M240.88,165.745H44.457C19.946,165.745,0,185.691,0,210.202v196.422c0,24.512,19.946,44.457,44.457,44.457H240.88 c24.512,0,44.457-19.946,44.457-44.457V210.202C285.337,185.691,265.391,165.745,240.88,165.745z M253.485,406.625 c0,6.952-5.654,12.605-12.605,12.605H44.457c-6.952,0-12.605-5.654-12.605-12.605V210.202c0-6.952,5.654-12.605,12.605-12.605 H240.88c6.952,0,12.605,5.654,12.605,12.605V406.625z"/> <path d="M142.665,279.217c-16.12,0-29.192,13.064-29.192,29.192s13.072,29.192,29.192,29.192c16.128,0,29.2-13.064,29.2-29.192 S158.793,279.217,142.665,279.217z"/> </g> </g>

</svg>