<!DOCTYPE svg PUBLIC "-//W3C//DTD SVG 1.1//EN" "http://www.w3.org/Graphics/SVG/1.1/DTD/svg11.dtd">

<!-- Uploaded to: SVG Repo, www.svgrepo.com, Transformed by: SVG Repo Mixer Tools -->
<svg width="18px" height="18px" viewBox="0 0 1024 1024" xmlns="http://www.w3.org/2000/svg" fill="#000000">

<g id="SVGRepo_bgCarrier" stroke-width="0"/>

<g id="SVGRepo_tracerCarrier" stroke-linecap="round" stroke-linejoin="round"/>

<g id="SVGRepo_iconCarrier">

<path fill="#707070" d="M512 768a256 256 0 1 0 0-512 256 256 0 0 0 0 512zm0 64a320 320 0 1 1 0-640 320 320 0 0 1 0 640z"/>

<path fill="#707070" d="M480 352a32 32 0 0 1 32 32v160a32 32 0 0 1-64 0V384a32 32 0 0 1 32-32z"/>

<path fill="#707070" d="M480 512h128q32 0 32 32t-32 32H480q-32 0-32-32t32-32zm128-256V128H416v128h-64V64h320v192h-64zM416 768v128h192V768h64v192H352V768h64z"/>

</g>

</svg>